<?xml version="1.0" encoding="UTF-8"?>
<svg version="1.1" xmlns="http://www.w3.org/2000/svg" width="1024" height="1024">
<path d="M0 0 C337.92 0 675.84 0 1024 0 C1024 337.92 1024 675.84 1024 1024 C686.08 1024 348.16 1024 0 1024 C0 686.08 0 348.16 0 0 Z " fill="#1A222B" transform="translate(0,0)"/>
<path d="M0 0 C109.26315789 0 109.26315789 0 135.5625 24.375 C136.7690625 25.674375 136.7690625 25.674375 138 27 C138.60457031 27.63421875 139.20914063 28.2684375 139.83203125 28.921875 C154.20089397 44.41716864 161.28359297 63.30142745 164 84 C164.25475098 85.38566162 164.25475098 85.38566162 164.51464844 86.79931641 C168.82948372 115.2537885 164.35519289 148.62673561 147.84765625 172.6171875 C144.46774358 176.97606007 140.8116768 181.01754915 137 185 C136.13761719 185.95712891 136.13761719 185.95712891 135.2578125 186.93359375 C122.17165932 200.99025111 102.51879558 207.68515055 84 210 C56.28 210 28.56 210 0 210 C0 140.7 0 71.4 0 0 Z " fill="#EEE0C6" transform="translate(591,542)"/>
<path d="M0 0 C13.86 0 27.72 0 42 0 C45.2484375 6.06375 45.2484375 6.06375 48.5625 12.25 C49.66174805 14.30178467 49.66174805 14.30178467 50.78320312 16.39501953 C54.13759427 22.65610714 57.49142108 28.91749544 60.84375 35.1796875 C71.41914774 54.93260944 82.02638793 74.66819195 92.6875 94.375 C93.21577393 95.35267334 93.74404785 96.33034668 94.28833008 97.33764648 C96.91481092 102.18893977 99.5643144 107.02539811 102.2578125 111.83984375 C103.02992065 113.22453857 103.02992065 113.22453857 103.81762695 114.63720703 C104.78976144 116.37698324 105.76718691 118.11381718 106.75073242 119.84716797 C107.17974854 120.61561035 107.60876465 121.38405273 108.05078125 122.17578125 C108.42887939 122.84520752 108.80697754 123.51463379 109.1965332 124.2043457 C110 126 110 126 110 129 C110.66 129 111.32 129 112 129 C112 86.76 112 44.52 112 1 C124.54 1 137.08 1 150 1 C150 67.99 150 134.98 150 204 C136.47 204 122.94 204 109 204 C107.22625 200.57625 105.4525 197.1525 103.625 193.625 C99.9022755 186.46909064 96.13759202 179.34565178 92.1875 172.3125 C87.92303947 164.71842277 83.79105868 157.05707378 79.6875 149.375 C78.39205105 146.95045457 77.09651427 144.52595613 75.80078125 142.1015625 C75.48063553 141.50252609 75.16048981 140.90348969 74.8306427 140.28630066 C70.13267894 131.50136726 65.37576514 122.74832616 60.62353516 113.99267578 C58.91799812 110.84884525 57.2145689 107.70388039 55.51171875 104.55859375 C54.64571045 102.95902832 54.64571045 102.95902832 53.76220703 101.32714844 C52.67067601 99.3109047 51.57919993 97.29463121 50.48779297 95.27832031 C47.00413422 88.84539585 43.50314068 82.42242458 40 76 C39.67 118.57 39.34 161.14 39 205 C26.13 205 13.26 205 0 205 C0 137.35 0 69.7 0 0 Z " fill="#EDDFC6" transform="translate(257,276)"/>
<path d="M0 0 C42.57 0 85.14 0 129 0 C129 12.87 129 25.74 129 39 C100.62 39 72.24 39 43 39 C43 53.85 43 68.7 43 84 C67.09 84 91.18 84 116 84 C116 96.87 116 109.74 116 123 C91.91 123 67.82 123 43 123 C43 138.84 43 154.68 43 171 C71.38 171 99.76 171 129 171 C129 183.87 129 196.74 129 210 C86.43 210 43.86 210 0 210 C0 140.7 0 71.4 0 0 Z " fill="#EEDFC5" transform="translate(424,542)"/>
<path d="M0 0 C42.9 0 85.8 0 130 0 C130 12.87 130 25.74 130 39 C101.29 39 72.58 39 43 39 C43 54.51 43 70.02 43 86 C67.75 86 92.5 86 118 86 C118 98.87 118 111.74 118 125 C93.25 125 68.5 125 43 125 C43 153.05 43 181.1 43 210 C28.81 210 14.62 210 0 210 C0 140.7 0 71.4 0 0 Z " fill="#EDDFC5" transform="translate(258,542)"/>
<path d="M0 0 C5.83637635 2.32490364 10.18082167 6.36164333 13 12 C13.09649939 13.9981051 13.12980872 15.9995718 13.125 18 C13.12886719 19.60875 13.12886719 19.60875 13.1328125 21.25 C13 24 13 24 12 26 C12.94875 26.226875 13.8975 26.45375 14.875 26.6875 C27.70640448 30.45688643 36.89308546 38.44574257 44.52734375 49.25 C49.16261523 57.90578547 49.80103375 66.93046111 50.5625 76.5625 C52.02840038 94.56460031 54.74426681 111.82169391 68.77734375 124.62109375 C70.16861461 125.76744651 71.58249696 126.88624761 73 128 C75.45665197 131.68497796 75.70086491 134.71971786 75 139 C73.20636089 141.8100346 71.98119065 143.50940468 69 145 C67.0476299 145.10452932 65.09166119 145.1439091 63.13652039 145.15390015 C61.8872879 145.16250061 60.63805542 145.17110107 59.35096741 145.17996216 C57.9588322 145.18439751 56.56669656 145.18869586 55.17456055 145.19287109 C53.71441451 145.20077115 52.25427043 145.20904004 50.79412842 145.21765137 C45.99167753 145.24388151 41.18921787 145.25917946 36.38671875 145.2734375 C34.73441881 145.27879667 33.08211893 145.28417418 31.42981911 145.28956985 C24.55763219 145.31119957 17.68544763 145.32993698 10.81323528 145.34119225 C0.95939787 145.35743616 -8.89404551 145.39062326 -18.74773437 145.44759309 C-25.67348564 145.48627188 -32.59913142 145.50582244 -39.52498788 145.51111281 C-43.66293347 145.514769 -47.80045891 145.52681799 -51.93828773 145.55921555 C-55.83146425 145.58926052 -59.7239656 145.59562124 -63.61723328 145.58383179 C-65.04549868 145.58361075 -66.47379508 145.59194092 -67.90195274 145.60948563 C-69.85302677 145.63214811 -71.8044065 145.62090687 -73.75556946 145.60800171 C-74.84714009 145.61131186 -75.93871073 145.614622 -77.06335926 145.61803246 C-80.97537275 144.79472735 -82.4884033 143.03266401 -85 140 C-85.98774311 136.87674524 -85.78251747 134.1678466 -85 131 C-83.35360194 128.26267556 -81.49114748 126.00711623 -79 124 C-78.34 124 -77.68 124 -77 124 C-76.73960937 123.43410156 -76.47921875 122.86820312 -76.2109375 122.28515625 C-74.89013884 119.79268137 -73.32343792 117.6884865 -71.625 115.4375 C-63.84956523 104.39670593 -62.38286743 92.12244481 -61.35693359 78.96875 C-60.29123138 65.6149403 -58.77609149 53.71752934 -50 43 C-49.39800781 42.25105469 -48.79601562 41.50210938 -48.17578125 40.73046875 C-41.78940798 33.58989521 -33.74404326 29.60568975 -25 26 C-24.01 26 -23.02 26 -22 26 C-22.495 25.01 -22.495 25.01 -23 24 C-23.50239048 18.49841245 -23.76205731 13.61204431 -21.375 8.5625 C-14.76812266 1.43402708 -9.85153136 -1.18324736 0 0 Z " fill="#EEDFC6" transform="translate(711,317)"/>
<path d="M0 0 C15.18 0 30.36 0 46 0 C57.77068106 27.15282108 57.77068106 27.15282108 63.1796875 39.66796875 C63.529245 40.4766893 63.87880249 41.28540985 64.23895264 42.11863708 C65.94428374 46.06415582 67.64920949 50.00984896 69.35351562 53.95581055 C73.54178928 63.64920278 77.75903303 73.32954613 82 83 C86.99939857 73.16001015 91.55314948 63.34083346 95.34521484 52.96728516 C99.08890785 42.87914046 103.4347303 33.0280704 107.66845703 23.13867188 C109.38460651 19.09341744 111.05069792 15.02818635 112.70678711 10.95800781 C114.33173929 7.24120196 116.18588229 3.62823542 118 0 C132.52 0 147.04 0 162 0 C160.60482732 4.18551803 159.2612036 7.74428274 157.34765625 11.6484375 C156.82389404 12.72440186 156.30013184 13.80036621 155.76049805 14.90893555 C154.91998901 16.62463745 154.91998901 16.62463745 154.0625 18.375 C152.87956629 20.80442149 151.70054479 23.23571934 150.5234375 25.66796875 C150.22630356 26.28184952 149.92916962 26.89573029 149.62303162 27.5282135 C146.28705764 34.44312888 143.10246919 41.42653229 139.95532227 48.42919922 C137.19647351 54.52759123 134.26345476 60.52671737 131.2545929 66.50462341 C128.5541462 71.87449067 125.90277224 77.26685279 123.2734375 82.671875 C122.87246353 83.49605423 122.47148956 84.32023346 122.05836487 85.16938782 C120.82993183 87.69594581 119.60234495 90.22291327 118.375 92.75 C117.13568257 95.30110672 115.89607657 97.8520715 114.65567017 100.40264893 C113.89360793 101.96967577 113.13213283 103.53698836 112.37142944 105.10467529 C112.01730988 105.83293518 111.66319031 106.56119507 111.29833984 107.31152344 C110.94109833 108.06548401 110.58385681 108.81944458 110.21578979 109.59625244 C109 112 109 112 107.41531372 114.58294678 C102.02055297 123.84212494 102.13543586 132.26622637 102.1953125 142.671875 C102.18404104 144.4483621 102.17015118 146.22483433 102.15377808 148.00128174 C102.11797662 152.63735181 102.1173363 157.27275926 102.12445068 161.90893555 C102.12553029 167.49265054 102.08217504 173.07618226 102.04641724 178.65975952 C101.99722123 187.10684719 102.00386449 195.55222311 102 204 C88.8 204 75.6 204 62 204 C62.03222656 198.42222656 62.06445312 192.84445312 62.09765625 187.09765625 C62.09803831 183.52914333 62.095743 179.96102163 62.08398438 176.39257812 C62.06563609 170.748673 62.05632296 165.10592675 62.10620117 159.4621582 C62.14586424 154.90329387 62.14051618 150.34635852 62.10607719 145.78747368 C62.1005489 144.06265591 62.11028491 142.33770812 62.13676643 140.61308479 C62.31508886 128.0598229 59.72726765 119.65412174 53.15456963 108.9769268 C51.17161022 105.58157886 49.5623135 102.01444966 47.9375 98.4375 C44.51761943 90.97653517 40.84876971 83.64627008 37.16317749 76.3140564 C33.33172683 68.69166602 29.50909634 61.06483473 25.6875 53.4375 C24.99625534 52.05792618 24.99625534 52.05792618 24.29104614 50.65048218 C18.47759666 39.0406174 12.7002201 27.42055387 7.19604492 15.65991211 C5.49261917 12.03332271 3.7519818 8.49964867 1.72265625 5.04296875 C0 2 0 2 0 0 Z " fill="#EDE0C6" transform="translate(430,276)"/>
<path d="M0 0 C34.18068536 0 34.18068536 0 44 4 C45.05703125 4.42410156 46.1140625 4.84820313 47.203125 5.28515625 C60.61312384 11.33313311 68.9664878 20.88162747 74.25 34.4375 C77.86088191 44.30407643 78.32422554 54.38365319 78.26074219 64.78759766 C78.25005039 66.8652081 78.26068256 68.94194737 78.2734375 71.01953125 C78.28768133 82.37962071 77.74749538 93.72263979 72.9375 104.1875 C72.63368408 104.85894043 72.32986816 105.53038086 72.0168457 106.22216797 C67.16217315 116.39095351 60.03608475 123.03963627 50 128 C34 133 34 133 0 133 C0 89.11 0 45.22 0 0 Z " fill="#182029" transform="translate(634,580)"/>
<path d="M0 0 C42.57 0 85.14 0 129 0 C129 12.87 129 25.74 129 39 C100.62 39 72.24 39 43 39 C43 53.85 43 68.7 43 84 C67.09 84 91.18 84 116 84 C116 96.87 116 109.74 116 123 C91.91 123 67.82 123 43 123 C43 138.51 43 154.02 43 170 C42.34 170.33 41.68 170.66 41 171 C40.9494106 164.20071581 40.91431333 157.4014799 40.89013672 150.60205078 C40.88006108 148.28757921 40.86640025 145.97312041 40.84912109 143.65869141 C40.82494135 140.33753307 40.8135327 137.0165426 40.8046875 133.6953125 C40.79436493 132.65569366 40.78404236 131.61607483 40.77340698 130.54495239 C40.77318039 129.10368484 40.77318039 129.10368484 40.77294922 127.63330078 C40.768508 126.78502716 40.76406677 125.93675354 40.75949097 125.06277466 C41 123 41 123 43 121 C45.97390747 120.75949097 45.97390747 120.75949097 49.83642578 120.77294922 C50.53897491 120.77265717 51.24152405 120.77236511 51.96536255 120.77206421 C54.29213731 120.77345977 56.61859354 120.78903128 58.9453125 120.8046875 C60.55671005 120.80841683 62.16810987 120.81126418 63.7795105 120.81326294 C68.02433514 120.82090569 72.2690233 120.84055961 76.51379395 120.8626709 C81.60487548 120.88670901 86.69600261 120.89590726 91.78712463 120.90757751 C99.52484473 120.92698371 107.26226526 120.96530164 115 121 C115 109.12 115 97.24 115 85 C90.58 85 66.16 85 41 85 C40.938125 73.676875 40.938125 73.676875 40.875 62.125 C40.85679199 59.74168457 40.83858398 57.35836914 40.81982422 54.90283203 C40.81398493 53.02116115 40.80888804 51.13948775 40.8046875 49.2578125 C40.79445557 48.27482178 40.78422363 47.29183105 40.77368164 46.27905273 C40.77343994 45.34536865 40.77319824 44.41168457 40.77294922 43.44970703 C40.768508 42.6369632 40.76406677 41.82421936 40.75949097 40.98684692 C41 39 41 39 43 37 C45.68063427 36.81200709 48.25709458 36.74818009 50.93798828 36.77294922 C52.16737625 36.77251114 52.16737625 36.77251114 53.42160034 36.77206421 C56.13794443 36.77346056 58.85401618 36.78903599 61.5703125 36.8046875 C63.45075328 36.80841655 65.33119599 36.81126403 67.2116394 36.81326294 C72.16665998 36.82090793 77.12156374 36.84056381 82.07653809 36.8626709 C87.1304364 36.88311072 92.18435354 36.89226066 97.23828125 36.90234375 C107.15891381 36.92380893 117.07942893 36.95899808 127 37 C127 25.45 127 13.9 127 2 C85.75 2 44.5 2 2 2 C2 70.31 2 138.62 2 209 C43.25 208.67 84.5 208.34 127 208 C127 196.45 127 184.9 127 173 C99.28 173 71.56 173 43 173 C43 172.67 43 172.34 43 172 C71.38 171.67 99.76 171.34 129 171 C129 183.87 129 196.74 129 210 C86.43 210 43.86 210 0 210 C0 140.7 0 71.4 0 0 Z " fill="#F9F1D5" transform="translate(424,542)"/>
<path d="M0 0 C42.24 0 84.48 0 128 0 C128 0.33 128 0.66 128 1 C86.42 1 44.84 1 2 1 C2 69.31 2 137.62 2 208 C14.87 208 27.74 208 41 208 C40.97679687 201.95945312 40.95359375 195.91890625 40.9296875 189.6953125 C40.91947256 185.87629781 40.90984493 182.05729988 40.90234375 178.23828125 C40.89037229 172.17200233 40.87618616 166.10578358 40.84912109 160.03955078 C40.82744472 155.15070815 40.8154424 150.26193002 40.81024551 145.37304306 C40.80654037 143.50465758 40.79930551 141.63627577 40.78853989 139.76791763 C40.77409406 137.15786261 40.77201914 134.54807663 40.77294922 131.93798828 C40.76575867 131.1597168 40.75856812 130.38144531 40.75115967 129.57958984 C40.77189568 124.22810432 40.77189568 124.22810432 43 122 C46.01187134 121.75949097 46.01187134 121.75949097 49.92822266 121.77294922 C50.64052536 121.77265717 51.35282806 121.77236511 52.0867157 121.77206421 C54.44595434 121.77345984 56.80487889 121.78903173 59.1640625 121.8046875 C60.79788032 121.80841681 62.43170038 121.81126417 64.06552124 121.81326294 C68.36952876 121.8209059 72.67340168 121.84056001 76.97735596 121.8626709 C82.13935566 121.88670843 87.30140031 121.89590716 92.46343994 121.90757751 C100.30905362 121.9269841 108.15437188 121.96530189 116 122 C116 110.45 116 98.9 116 87 C91.91 87 67.82 87 43 87 C43 86.67 43 86.34 43 86 C67.75 86 92.5 86 118 86 C118 98.54 118 111.08 118 124 C93.25 124 68.5 124 43 124 C43 152.05 43 180.1 43 209 C28.81 209 14.62 209 0 209 C0 140.03 0 71.06 0 0 Z " fill="#FBF3D7" transform="translate(258,543)"/>
<path d="M0 0 C15.18 0 30.36 0 46 0 C44.88321419 7.81750064 43.15259847 12.76936834 36.8359375 17.68359375 C30.20375294 21.49655979 23.50982697 22.18272563 16 21 C9.13804103 18.45894831 3.91008858 12.73335496 0.625 6.3125 C0 4 0 4 0 0 Z " fill="#EEE2C9" transform="translate(683,468)"/>
<path d="M0 0 C0.70125 0.00515625 1.4025 0.0103125 2.125 0.015625 C2.82625 0.01046875 3.5275 0.0053125 4.25 0 C6.125 0.265625 6.125 0.265625 8.125 2.265625 C8.3203125 4.6484375 8.3203125 4.6484375 8.25 7.390625 C8.23195313 8.30070312 8.21390625 9.21078125 8.1953125 10.1484375 C8.17210937 10.84710938 8.14890625 11.54578125 8.125 12.265625 C6.33406809 12.34648647 4.54210372 12.40475202 2.75 12.453125 C1.25339844 12.50533203 1.25339844 12.50533203 -0.2734375 12.55859375 C-1.13195312 12.46191406 -1.99046875 12.36523438 -2.875 12.265625 C-4.875 9.265625 -4.875 9.265625 -4.625 5.703125 C-3.48850844 0.49420536 -3.48850844 0.49420536 0 0 Z " fill="#172029" transform="translate(703.875,328.734375)"/>
<path d="M0 0 C14.52 0 29.04 0 44 0 C42.30119563 5.09641312 40.69062201 8.51562998 38 13 C37.505 12.01 37.505 12.01 37 11 C38.32 8.36 39.64 5.72 41 3 C20.705 2.505 20.705 2.505 0 2 C0 1.34 0 0.68 0 0 Z " fill="#DFD9C2" transform="translate(548,276)"/>
<path d="M0 0 C0.66 0 1.32 0 2 0 C2.04980916 4.41079226 2.08591133 8.82143112 2.10986328 13.23242188 C2.11985901 14.72984676 2.13346014 16.22725244 2.15087891 17.72460938 C2.17541288 19.88937143 2.18654744 22.05387323 2.1953125 24.21875 C2.20578613 25.51748047 2.21625977 26.81621094 2.22705078 28.15429688 C1.97739336 32.38290298 1.14353958 35.93232287 0 40 C-0.33 40 -0.66 40 -1 40 C-0.67 26.8 -0.34 13.6 0 0 Z " fill="#DAD6C1" transform="translate(754,632)"/>
<path d="M0 0 C2.475 0.99 2.475 0.99 5 2 C5 2.33 5 2.66 5 3 C3.35 3.33 1.7 3.66 0 4 C0 5.65 0 7.3 0 9 C2.97 9.33 5.94 9.66 9 10 C9 7.69 9 5.38 9 3 C9.33 3 9.66 3 10 3 C10 5.97 10 8.94 10 12 C8.20906809 12.08086147 6.41710372 12.13912702 4.625 12.1875 C3.12839844 12.23970703 3.12839844 12.23970703 1.6015625 12.29296875 C0.74304688 12.19628906 -0.11546875 12.09960938 -1 12 C-3 9 -3 9 -2.75 5.4375 C-2 2 -2 2 0 0 Z " fill="#282A2F" transform="translate(702,329)"/>
<path d="M0 0 C3.0880764 2.80734219 4.84178729 5.27843122 5.23046875 9.5078125 C5.21628906 10.37148438 5.20210937 11.23515625 5.1875 12.125 C5.18105469 12.99382812 5.17460938 13.86265625 5.16796875 14.7578125 C5 17 5 17 4 19 C6.64 19.33 9.28 19.66 12 20 C12.33 20.99 12.66 21.98 13 23 C9.19087013 22.32780061 5.65811275 21.24639299 2 20 C2.03480469 18.58847656 2.03480469 18.58847656 2.0703125 17.1484375 C2.08835937 15.90320313 2.10640625 14.65796875 2.125 13.375 C2.15980469 11.53035156 2.15980469 11.53035156 2.1953125 9.6484375 C2.0030428 6.05683959 1.30258556 3.33338825 0 0 Z " fill="#0E131D" transform="translate(721,323)"/>
<path d="M0 0 C0.99 0.33 1.98 0.66 3 1 C2.67 15.19 2.34 29.38 2 44 C1.67 44 1.34 44 1 44 C1 30.8 1 17.6 1 4 C0.34 4 -0.32 4 -1 4 C-0.67 2.68 -0.34 1.36 0 0 Z " fill="#222A32" transform="translate(533,398)"/>
<path d="M0 0 C0.98484375 0.01804687 1.9696875 0.03609375 2.984375 0.0546875 C4.10585938 0.08949219 4.10585938 0.08949219 5.25 0.125 C5.25 0.785 5.25 1.445 5.25 2.125 C4.57453125 2.16238281 3.8990625 2.19976562 3.203125 2.23828125 C2.31109375 2.30402344 1.4190625 2.36976563 0.5 2.4375 C-0.38171875 2.49550781 -1.2634375 2.55351562 -2.171875 2.61328125 C-5.07303774 3.1891181 -6.54225607 4.20096148 -8.75 6.125 C-9.41 5.795 -10.07 5.465 -10.75 5.125 C-9.75 2.125 -9.75 2.125 -8.046875 0.9453125 C-5.24061169 -0.0569244 -2.97306264 -0.07078721 0 0 Z " fill="#DDD5BF" transform="translate(705.75,316.875)"/>
<path d="M0 0 C2.76392829 0.08129201 4.5279718 0.60977528 6.66796875 2.37890625 C9.76572276 5.66797049 10.93473201 7.31468615 11.375 11.9375 C11.25125 12.948125 11.1275 13.95875 11 15 C10.7525 14.484375 10.505 13.96875 10.25 13.4375 C6.33603588 5.73342901 6.33603588 5.73342901 0 0 Z " fill="#F1ECD6" transform="translate(712,319)"/>
<path d="M0 0 C3.34314819 1.45746236 5.6078211 3.30984087 8.1875 5.875 C9.22970703 6.89207031 9.22970703 6.89207031 10.29296875 7.9296875 C12.0254452 10.03086032 12.60055703 11.34102145 13 14 C11.88085919 12.88085919 10.76206063 11.76137493 9.64453125 10.640625 C8.39693967 9.39599682 7.14323731 8.15749029 5.88671875 6.921875 C5.16097656 6.20515625 4.43523438 5.4884375 3.6875 4.75 C2.99011719 4.06421875 2.29273438 3.3784375 1.57421875 2.671875 C0 1 0 1 0 0 Z " fill="#0E131D" transform="translate(742,351)"/>
<path d="M0 0 C0.99 0.66 1.98 1.32 3 2 C2.34 4.31 1.68 6.62 1 9 C-0.32 9.33 -1.64 9.66 -3 10 C-2.01 6.7 -1.02 3.4 0 0 Z " fill="#D9D0BB" transform="translate(708,678)"/>
<path d="M0 0 C2.67438936 2.38335287 4.15158012 4.87036148 5.75 8.0625 C6.19859375 8.94035156 6.6471875 9.81820313 7.109375 10.72265625 C7.40328125 11.47417969 7.6971875 12.22570312 8 13 C7.67 13.66 7.34 14.32 7 15 C5.82539808 13.06730041 4.66055528 11.12866687 3.5 9.1875 C2.8503125 8.10855469 2.200625 7.02960938 1.53125 5.91796875 C0 3 0 3 0 0 Z " fill="#EBE6CF" transform="translate(360,392)"/>
<path d="M0 0 C0.33 0.99 0.66 1.98 1 3 C-0.109375 5.04296875 -0.109375 5.04296875 -1.75 7.1875 C-2.28109375 7.90292969 -2.8121875 8.61835938 -3.359375 9.35546875 C-3.90078125 9.89816406 -4.4421875 10.44085938 -5 11 C-5.99 11 -6.98 11 -8 11 C-7.34 10.34 -6.68 9.68 -6 9 C-5.3574765 6.93125966 -5.3574765 6.93125966 -5 5 C-4.01 5 -3.02 5 -2 5 C-1.34 3.35 -0.68 1.7 0 0 Z " fill="#0C121C" transform="translate(641,427)"/>
<path d="M0 0 C0.99 0.33 1.98 0.66 3 1 C3.05389087 2.95803507 3.09274217 4.91648909 3.125 6.875 C3.14820313 7.96554687 3.17140625 9.05609375 3.1953125 10.1796875 C3 13 3 13 1 15 C0.01 14.67 -0.98 14.34 -2 14 C-1.01 13.34 -0.02 12.68 1 12 C1.39259107 7.76001646 1.32490278 4.63266059 -1 1 C-0.67 0.67 -0.34 0.34 0 0 Z " fill="#E4D8C1" transform="translate(781,444)"/>
<path d="M0 0 C0.66 1.32 1.32 2.64 2 4 C0 6 -2 8 -4 10 C-4.8125 7.8125 -4.8125 7.8125 -5 5 C-2.5625 2.1875 -2.5625 2.1875 0 0 Z " fill="#E1D7C3" transform="translate(632,441)"/>
<path d="M0 0 C2.89401051 1.29731506 5.16400267 2.37714667 7 5 C7.55177892 7.67931112 7.77564586 10.26287955 8 13 C6.19464473 10.2919671 4.59099459 7.55270911 3 4.71875 C2.06266426 3.1077042 1.03389731 1.55084596 0 0 Z " fill="#0A0F19" transform="translate(780,441)"/>
<path d="M0 0 C1.39195915 4.17587745 -0.17676781 6.13474776 -2 10 C-2.99 9.01 -3.98 8.02 -5 7 C-4.67 6.01 -4.34 5.02 -4 4 C-3.34 4 -2.68 4 -2 4 C-1.34 2.68 -0.68 1.36 0 0 Z " fill="#0E121D" transform="translate(515,350)"/>
<path d="M0 0 C1.32 0 2.64 0 4 0 C4.33 2.97 4.66 5.94 5 9 C1.89448334 5.89448334 1.18676066 4.10801767 0 0 Z " fill="#141A24" transform="translate(501,335)"/>
<path d="M0 0 C6.4 -0.36923077 6.4 -0.36923077 9.4375 1.5 C9.953125 1.995 10.46875 2.49 11 3 C3.57142857 3.14285714 3.57142857 3.14285714 0 2 C0 1.34 0 0.68 0 0 Z " fill="#E4DAC2" transform="translate(664,749)"/>
<path d="M0 0 C0 0.99 0 1.98 0 3 C-2.64 3 -5.28 3 -8 3 C-5.53387212 -0.1151089 -3.89156016 -0.31553191 0 0 Z " fill="#F3E9CF" transform="translate(678,748)"/>
<path d="M0 0 C1.34173403 0.92543709 2.67320159 1.86577405 4 2.8125 C5.11375 3.59560547 5.11375 3.59560547 6.25 4.39453125 C6.8275 4.92433594 7.405 5.45414062 8 6 C8 6.99 8 7.98 8 9 C6.84775972 8.07038578 5.70340824 7.1309875 4.5625 6.1875 C3.60537109 5.40439453 3.60537109 5.40439453 2.62890625 4.60546875 C1 3 1 3 0 0 Z " fill="#F0EAD4" transform="translate(773,436)"/>
<path d="M0 0 C2.0245738 1.93254772 3.42105792 3.63158688 5 6 C4.625 8.1875 4.625 8.1875 4 10 C0 3.375 0 3.375 0 0 Z " fill="#141921" transform="translate(338,429)"/>
</svg>
